<?xml version="1.0" standalone="no"?>
<!DOCTYPE svg PUBLIC "-//W3C//DTD SVG 20010904//EN"
 "http://www.w3.org/TR/2001/REC-SVG-20010904/DTD/svg10.dtd">
<svg version="1.0" xmlns="http://www.w3.org/2000/svg"
 width="500.000000pt" height="500.000000pt" viewBox="0 0 500.000000 500.000000"
 preserveAspectRatio="xMidYMid meet">

<g transform="translate(0.000000,500.000000) scale(0.100000,-0.100000)"
fill="#000000" stroke="none">
<path d="M3013 4666 c-35 -39 -87 -159 -110 -252 -9 -35 -19 -64 -22 -64 -4 0
-30 51 -60 114 -62 134 -106 189 -148 184 -19 -2 -32 -12 -41 -31 -25 -53 -52
-211 -58 -347 -6 -131 -7 -136 -39 -186 -94 -145 -160 -325 -230 -624 -25
-107 -59 -251 -75 -320 -79 -334 -94 -400 -136 -600 -65 -317 -99 -531 -119
-760 -8 -93 11 -332 34 -419 17 -63 19 -95 14 -206 -7 -152 1 -181 46 -172 22
5 32 -1 54 -28 l27 -34 -21 -43 c-64 -127 -142 -205 -281 -282 -148 -82 -414
-140 -481 -104 -12 6 -47 34 -79 62 -75 68 -150 112 -223 131 -63 16 -190 21
-199 7 -3 -5 41 -14 96 -21 127 -16 210 -53 293 -131 33 -31 73 -64 90 -75 41
-26 117 -23 255 10 282 67 518 237 571 413 7 23 17 41 23 39 12 -3 95 -154 96
-173 0 -19 -94 -105 -176 -160 -84 -56 -178 -102 -274 -136 -73 -25 -284 -65
-386 -72 -61 -5 -96 -14 -140 -35 -96 -47 -153 -63 -252 -69 -103 -5 -107 -22
-7 -22 97 0 184 19 270 57 62 28 99 38 170 44 322 30 572 129 759 300 30 27
57 46 59 42 11 -18 47 -153 58 -216 15 -91 33 -109 145 -146 138 -45 329 -66
459 -50 85 11 101 26 80 75 l-14 34 32 0 c18 0 52 -5 77 -11 140 -32 454 -52
488 -30 8 5 12 21 10 37 -2 21 -24 46 -88 101 -47 40 -86 79 -88 86 -1 7 27
72 63 145 36 72 65 136 65 142 0 6 31 43 69 83 133 138 180 218 227 383 20 72
26 120 31 254 5 147 3 176 -16 265 -42 188 -102 340 -195 494 -21 33 -35 65
-31 71 3 5 35 19 71 30 150 46 325 181 419 322 89 135 115 324 60 446 -50 111
-105 145 -305 186 -69 15 -137 31 -151 37 -24 10 -72 76 -211 294 -168 264
-203 311 -293 400 l-95 94 -10 108 c-19 198 -43 313 -73 351 -18 22 -54 13
-84 -22z m85 -56 c17 -59 42 -240 42 -312 0 -45 -3 -58 -15 -58 -31 0 -15 -36
21 -49 44 -16 156 -119 200 -186 l34 -50 -26 -7 c-27 -7 -53 -34 -54 -55 0 -8
8 -5 20 7 27 27 71 26 97 -2 22 -24 103 -156 103 -167 0 -3 -17 -13 -39 -22
-111 -47 -103 -258 12 -319 33 -18 52 -21 79 -16 42 8 98 64 98 99 0 19 5 16
38 -21 37 -43 38 -43 162 -68 222 -43 264 -62 312 -139 60 -97 64 -254 10
-369 -45 -94 -152 -228 -204 -255 -16 -8 -28 -18 -28 -23 0 -4 -4 -8 -9 -8 -6
0 -38 -16 -71 -36 -79 -46 -191 -87 -300 -109 -68 -14 -113 -16 -225 -12 -186
8 -295 41 -425 130 -163 112 -336 374 -405 611 -29 101 -35 113 -35 69 0 -91
108 -357 195 -478 101 -141 196 -225 332 -294 120 -60 191 -74 378 -74 88 0
177 4 198 10 49 14 52 11 128 -140 140 -279 193 -552 159 -817 -10 -74 -32
-158 -51 -192 -5 -10 -9 -22 -9 -27 0 -6 -16 -37 -35 -69 -44 -76 -162 -202
-231 -248 -30 -20 -54 -38 -54 -41 0 -5 35 2 64 13 16 6 -20 -78 -99 -229 -51
-97 -59 -121 -39 -113 9 4 40 -11 79 -40 77 -54 120 -103 106 -117 -14 -14
-189 -10 -301 8 -188 30 -225 38 -252 52 l-28 14 0 149 0 149 38 6 c75 12 167
36 177 46 7 8 -1 9 -30 5 -86 -13 -265 -25 -298 -19 -29 4 -36 10 -41 36 -3
16 -8 28 -11 25 -3 -2 -12 -69 -20 -149 -8 -79 -17 -160 -19 -180 -3 -33 -1
-37 23 -42 31 -6 137 -85 165 -123 12 -17 15 -29 9 -35 -11 -11 -223 -13 -308
-3 -87 10 -262 64 -282 88 -11 11 -25 50 -32 86 -20 103 -56 221 -96 311 -20
46 -39 90 -42 97 -3 6 2 12 10 12 29 0 53 48 76 148 26 119 40 136 72 93 30
-41 76 -57 101 -35 24 22 23 37 -8 125 -24 69 -25 79 -16 154 6 44 26 136 45
205 43 154 77 317 77 362 -1 69 -18 13 -121 -407 -37 -151 -40 -248 -10 -323
41 -102 15 -123 -59 -47 -24 25 -48 45 -53 45 -13 0 -37 -66 -56 -154 -37
-168 -65 -169 -69 -3 -3 113 -12 146 -27 90 -3 -15 -6 -66 -5 -113 2 -107 3
-105 -13 -91 -19 15 -38 84 -46 164 -3 37 -10 67 -16 67 -13 -1 -9 -108 6
-173 6 -26 9 -51 5 -54 -11 -12 -38 71 -49 154 -15 106 -32 110 -24 4 6 -80
-6 -123 -31 -107 -18 11 -14 70 12 212 14 76 29 207 35 319 10 171 29 351 50
487 9 52 -3 75 -18 36 -20 -55 -51 -334 -67 -611 -3 -59 -9 -107 -14 -107 -16
0 -34 193 -34 365 0 157 4 205 32 370 50 291 135 715 172 855 5 19 28 116 51
215 102 444 155 625 233 790 39 82 86 146 86 117 0 -7 4 -12 9 -12 6 0 10 63
10 152 1 211 34 403 69 396 44 -8 133 -178 190 -361 27 -90 44 -110 50 -60 5
34 17 43 60 43 34 0 43 14 16 24 -9 3 -28 6 -44 6 -15 0 -30 6 -33 14 -15 39
64 281 119 364 23 34 46 24 62 -28z m364 -1002 c-5 -64 30 -112 83 -116 30 -2
46 3 62 18 12 11 25 20 28 20 14 0 3 -70 -16 -94 -26 -33 -93 -37 -131 -6 -51
40 -74 134 -46 195 17 37 24 31 20 -17z m-482 -2858 c12 -7 15 -36 15 -149 0
-77 -3 -142 -7 -146 -3 -4 -34 12 -67 34 -47 32 -61 48 -61 66 0 46 23 180 33
193 11 14 65 16 87 2z"/>
<path d="M3060 4528 c-1 -18 -5 -91 -9 -163 -5 -71 -6 -134 -4 -139 10 -15 20
14 22 61 2 65 11 68 11 4 0 -35 4 -51 11 -49 14 5 13 141 -1 239 -5 35 -10 67
-10 72 0 4 -4 7 -10 7 -5 0 -10 -15 -10 -32z"/>
<path d="M2677 4494 c-11 -11 -8 -364 2 -364 16 0 21 31 17 101 -2 37 -1 82 3
100 6 31 8 28 24 -44 9 -43 17 -86 17 -97 0 -18 17 -37 25 -28 8 8 -17 154
-41 237 -26 88 -35 107 -47 95z"/>
<path d="M2913 3798 c-25 -12 -67 -90 -60 -110 2 -7 14 6 26 29 21 43 63 73
101 73 11 0 20 5 20 10 0 13 -59 12 -87 -2z"/>
<path d="M3085 3557 c-52 -29 -75 -75 -75 -152 0 -72 24 -130 69 -168 63 -53
179 -29 217 44 42 81 -10 240 -91 279 -52 25 -71 25 -120 -3z m10 -92 c0 -56
3 -68 26 -90 14 -14 41 -28 60 -31 28 -5 41 -1 67 21 l32 27 0 -36 c0 -53 -20
-87 -63 -106 -44 -20 -95 -13 -129 17 -47 42 -71 138 -48 197 8 21 44 66 53
66 1 0 2 -29 2 -65z"/>
<path d="M855 660 c-3 -4 35 -17 85 -28 49 -12 121 -37 160 -57 40 -20 76 -35
82 -33 20 7 -66 65 -127 87 -63 23 -193 42 -200 31z"/>
<path d="M780 630 c0 -13 44 -34 118 -56 34 -10 62 -21 62 -24 0 -3 -37 -3
-82 0 -101 6 -119 -3 -93 -48 21 -35 96 -76 173 -94 28 -7 52 -16 52 -19 0 -7
-112 -19 -177 -19 -56 0 -54 -16 5 -43 82 -37 266 -35 366 3 51 19 20 22 -64
6 -56 -11 -108 -14 -159 -10 -97 8 -128 23 -48 24 66 0 197 27 197 41 0 5 -10
11 -22 14 -185 40 -263 63 -241 72 6 2 37 -3 70 -11 74 -19 202 -32 188 -19
-5 5 -68 22 -139 37 -71 15 -138 32 -150 37 -35 15 104 -1 220 -26 108 -22
145 -17 77 11 -21 9 -62 27 -90 40 -46 20 -248 94 -259 94 -2 0 -4 -4 -4 -10z"/>
</g>
</svg>
